<?xml version="1.0" encoding="UTF-8" standalone="no"?>
<svg
   version="1.1"
   id="Layer_1"
   x="0px"
   y="0px"
   width="104.90664"
   viewBox="0 0 104.90664 126.11439"
   enable-background="new 0 0 217 199"
   xml:space="preserve"
   height="126.11439"
   xmlns="http://www.w3.org/2000/svg"
   xmlns:svg="http://www.w3.org/2000/svg"><defs
   id="defs750" />
<path
   fill="#9f2124"
   opacity="1"
   stroke="none"
   d="m 418.57663,136.12242 c -80.03985,0 -159.30008,0 -238.56033,0 0,-136.15789213 0,-272.31577 0,-408.47366 112.7834,-10e-6 225.5668,-10e-6 338.35022,-2e-5 2e-5,136.15786 2e-5,272.31572687 5e-5,408.47362 -33.00345,6e-5 -66.00688,6e-5 -99.78994,6e-5 m -4.3295,-104.354069 c -4.15154,-9.4419 -8.58065,-18.694322 -12.39182,-28.3686211 -6.23859,-15.8362989 -14.03124,-29.1106059 -29.25486,-32.8438909 15.53126,-20.405437 23.27428,-44.192912 20.70735,-71.262809 -2.77211,-29.23381 -8.03371,-58.05853 -11.85041,-84.56827 -11.27708,12.34446 -22.69163,25.51483 -34.65555,37.75457 -13.18801,13.49203 -27.34719,25.61625 -31.39456,50.09304 -6.3194,-15.0314 -11.15935,-30.35595 -16.9394,-45.03916 -5.44686,-13.83685 -11.19978,-27.64615 -18.09332,-40.25974 -5.94482,-10.87761 -18.38744,-13.97802 -25.28002,-8.45962 0.49511,0.75248 0.88175,1.6669 1.47217,2.14718 0.61202,0.49783 1.45609,0.90909 2.13949,0.78651 12.43991,-2.23109 18.59299,8.4075 23.22525,20.69157 4.93331,13.0824 8.82987,26.8383 13.27348,40.24593 4.10335,12.381 6.73718,25.91953 16.07116,34.206968 1.0596,0.940793 0.79445,4.740446 0.89627,7.231973 0.53486,13.08736 -1.04351,27.020274 1.84005,39.119778 10.17469,42.6935669 32.59802,73.743808 59.15111,100.063229 4.57177,4.53151 9.84987,7.82801 14.8017,11.69499 0.32452,-0.65479 0.64904,-1.30958 0.97353,-1.96437 -4.46017,-5.22795 -8.92033,-10.45594 -14.58344,-17.09393 16.07705,-1.78004 30.36902,-3.36245 44.31153,-4.90616 -0.58706,-1.259 -2.17853,-4.672011 -4.41971,-9.269167 z"
   id="path739"
   style="stroke-width:1.78899" />
<path
   fill="#fdfafa"
   opacity="1"
   stroke="none"
   d="m 102.28042,110.21209 c 1.22902,1.9512 2.24971,3.61395 2.62622,4.22731 -8.941992,0.75206 -18.108112,1.52298 -28.419082,2.39018 3.63202,3.23389 6.49254,5.78086 9.35306,8.32781 -0.20812,0.319 -0.41625,0.638 -0.62438,0.957 -3.17584,-1.88391 -6.56094,-3.4899 -9.49303,-5.69756 C 58.693458,107.59455 44.312317,92.467507 37.786812,71.668077 35.937447,65.773437 36.94973,58.985616 36.606705,52.609723 36.541397,51.395902 36.711449,49.544789 36.031876,49.086454 30.045563,45.048986 28.356362,38.45329 25.724694,32.421521 22.874787,25.8896 20.37574,19.188008 17.211777,12.81453 14.240895,6.8299804 10.294632,1.6470774 2.31633,2.7340214 1.878029,2.7937414 1.336689,2.5933814 0.944172,2.3508504 0.56551,2.1168684 0.317536,1.6713804 0,1.3047884 c 4.42054,-2.688454 12.400582,-1.17799404 16.213272,4.121353 4.421151,6.1450796 8.110772,12.8726916 11.604096,19.6137196 3.707023,7.153358 6.811111,14.619163 10.864044,21.942154 2.595772,-11.924591 11.67672,-17.831261 20.134806,-24.404301 7.67303,-5.962952 14.99372,-12.379284 22.22624,-18.3932526 2.44783,12.9150036 5.82234,26.9578166 7.60023,41.1999276 1.64629,13.187897 -3.31967,24.776668 -13.2806,34.717768 9.76362,1.81879 14.76142,8.28576 18.76252,16.00087 2.44428,4.713123 5.28488,9.220723 8.155812,14.109063 M 49.113075,68.841757 c 0.957078,1.93262 1.811393,3.92464 2.888683,5.78775 5.1933,8.98147 11.67103,9.69432 17.76956,1.36826 7.89039,-10.77237 9.86638,-23.051748 6.95226,-36.000593 -1.15013,-5.110588 -5.04899,-7.689293 -10.26581,-7.685333 -9.42619,0.0072 -18.434658,7.324394 -20.71719,16.463905 -1.741089,6.971535 1.161934,13.041821 3.372497,20.066011 m 26.554273,19.37837 c -1.99762,-0.7703 -3.93899,-1.94192 -6.004,-2.23131 -5.03775,-0.70598 -10.32765,3.50504 -8.47966,6.85593 3.39405,6.15427 7.51769,12.047873 12.21732,17.255933 1.44963,1.60645 6.54291,1.81685 8.53124,0.49897 1.88688,-1.25064 3.28948,-5.87702 2.44335,-8.06851 -1.90135,-4.924613 -5.32876,-9.260013 -8.70825,-14.311013 z"
   id="path741" />
<path
   fill="#da5341"
   opacity="1"
   stroke="none"
   d="m 48.990761,68.475147 c -2.088249,-6.65758 -4.991272,-12.727866 -3.250183,-19.699401 2.282532,-9.139511 11.291,-16.456749 20.71719,-16.463905 5.21682,-0.004 9.11568,2.574745 10.26581,7.685333 2.91412,12.948845 0.93813,25.228223 -6.95226,36.000593 -6.09853,8.32606 -12.57626,7.61321 -17.76956,-1.36826 -1.07729,-1.86311 -1.931605,-3.85513 -3.010997,-6.15436 z"
   id="path743" />
<path
   fill="#db5442"
   opacity="1"
   stroke="none"
   d="m 75.953968,88.458017 c 3.09287,4.81311 6.52028,9.14851 8.42163,14.073123 0.84613,2.19149 -0.55647,6.81787 -2.44335,8.06851 -1.98833,1.31788 -7.08161,1.10748 -8.53124,-0.49897 -4.69963,-5.20806 -8.82327,-11.101663 -12.21732,-17.255933 -1.84799,-3.35089 3.44191,-7.56191 8.47966,-6.85593 2.06501,0.28939 4.00638,1.46101 6.29062,2.4692 z"
   id="path745" />
</svg>
