<?xml version="1.0" encoding="UTF-8"?>
<!DOCTYPE svg PUBLIC "-//W3C//DTD SVG 1.1//EN" "http://www.w3.org/Graphics/SVG/1.1/DTD/svg11.dtd">
<svg xmlns="http://www.w3.org/2000/svg" version="1.1" width="217px" height="199px" style="shape-rendering:geometricPrecision; text-rendering:geometricPrecision; image-rendering:optimizeQuality; fill-rule:evenodd; clip-rule:evenodd" xmlns:xlink="http://www.w3.org/1999/xlink">
<g><path style="opacity:1" fill="#9f2124" d="M -0.5,-0.5 C 71.8333,-0.5 144.167,-0.5 216.5,-0.5C 216.5,65.8333 216.5,132.167 216.5,198.5C 144.167,198.5 71.8333,198.5 -0.5,198.5C -0.5,132.167 -0.5,65.8333 -0.5,-0.5 Z"/></g>
<g><path style="opacity:1" fill="#fcf8f8" d="M 48.5,37.5 C 54.6126,36.4104 59.7792,38.077 64,42.5C 65.6667,44.8333 67.3333,47.1667 69,49.5C 74.6294,61.7456 80.6294,73.7456 87,85.5C 87.4522,80.1353 89.4522,75.4687 93,71.5C 102.046,63.3977 111.546,55.8977 121.5,49C 123.667,46.1667 125.833,43.3333 128,40.5C 131.477,54.8867 134.311,69.3867 136.5,84C 136.775,97.0179 132.441,108.185 123.5,117.5C 128.195,118.93 132.362,121.263 136,124.5C 141.667,133.833 147.333,143.167 153,152.5C 153.688,153.332 153.521,153.998 152.5,154.5C 149.332,153.068 145.999,152.401 142.5,152.5C 136.562,153.642 130.562,154.476 124.5,155C 127.312,157.901 130.312,160.568 133.5,163C 128.204,161.181 123.204,158.515 118.5,155C 102.444,142.047 90.944,125.881 84,106.5C 83.2522,100.468 83.4189,94.4681 84.5,88.5C 82.8793,86.3761 81.046,84.3761 79,82.5C 73.7129,69.963 68.0463,57.6297 62,45.5C 57.8604,40.7886 52.6938,39.2886 46.5,41C 43.4802,43.0014 40.4802,44.6681 37.5,46C 40.5497,42.1673 44.2163,39.334 48.5,37.5 Z"/></g>
<g><path style="opacity:1" fill="#da5240" d="M 108.5,70.5 C 120.073,68.7377 125.74,73.7377 125.5,85.5C 126.125,97.6176 122.458,108.118 114.5,117C 110.851,119.91 107.185,120.076 103.5,117.5C 97.7984,109.575 94.1317,100.741 92.5,91C 93.6208,80.7293 98.9542,73.896 108.5,70.5 Z"/></g>
<g><path style="opacity:1" fill="#da5442" d="M 113.5,123.5 C 126.78,125.375 132.947,133.041 132,146.5C 128.627,149.886 124.794,150.386 120.5,148C 115.116,142.732 111.116,136.565 108.5,129.5C 109.465,126.872 111.132,124.872 113.5,123.5 Z"/></g>
</svg>
