<?xml version="1.0" encoding="UTF-8" standalone="no"?>
<svg
   version="1.1"
   id="Layer_1"
   x="0px"
   y="0px"
   width="104.90664"
   viewBox="0 0 104.90664 126.11439"
   enable-background="new 0 0 217 199"
   xml:space="preserve"
   sodipodi:docname="mariBlanca.svg"
   height="126.11439"
   inkscape:version="1.2.2 (732a01da63, 2022-12-09)"
   xmlns:inkscape="http://www.inkscape.org/namespaces/inkscape"
   xmlns:sodipodi="http://sodipodi.sourceforge.net/DTD/sodipodi-0.dtd"
   xmlns="http://www.w3.org/2000/svg"
   xmlns:svg="http://www.w3.org/2000/svg"><defs
   id="defs750" /><sodipodi:namedview
   id="namedview748"
   pagecolor="#ffffff"
   bordercolor="#000000"
   borderopacity="0.25"
   inkscape:showpageshadow="2"
   inkscape:pageopacity="0.0"
   inkscape:pagecheckerboard="0"
   inkscape:deskcolor="#d1d1d1"
   showgrid="false"
   inkscape:zoom="2.7688442"
   inkscape:cx="92.818512"
   inkscape:cy="47.673321"
   inkscape:window-width="1366"
   inkscape:window-height="705"
   inkscape:window-x="-8"
   inkscape:window-y="-8"
   inkscape:window-maximized="1"
   inkscape:current-layer="Layer_1" />

<path
   fill="#fdfafa"
   opacity="1"
   stroke="none"
   d="m 102.28042,110.21209 c 1.22902,1.9512 2.24971,3.61395 2.62622,4.22731 -8.941992,0.75206 -18.108112,1.52298 -28.419082,2.39018 3.63202,3.23389 6.49254,5.78086 9.35306,8.32781 -0.20812,0.319 -0.41625,0.638 -0.62438,0.957 -3.17584,-1.88391 -6.56094,-3.4899 -9.49303,-5.69756 C 58.693458,107.59455 44.312317,92.467507 37.786812,71.668077 35.937447,65.773437 36.94973,58.985616 36.606705,52.609723 36.541397,51.395902 36.711449,49.544789 36.031876,49.086454 30.045563,45.048986 28.356362,38.45329 25.724694,32.421521 22.874787,25.8896 20.37574,19.188008 17.211777,12.81453 14.240895,6.8299804 10.294632,1.6470774 2.31633,2.7340214 1.878029,2.7937414 1.336689,2.5933814 0.944172,2.3508504 0.56551,2.1168684 0.317536,1.6713804 0,1.3047884 c 4.42054,-2.688454 12.400582,-1.17799404 16.213272,4.121353 4.421151,6.1450796 8.110772,12.8726916 11.604096,19.6137196 3.707023,7.153358 6.811111,14.619163 10.864044,21.942154 2.595772,-11.924591 11.67672,-17.831261 20.134806,-24.404301 7.67303,-5.962952 14.99372,-12.379284 22.22624,-18.3932526 2.44783,12.9150036 5.82234,26.9578166 7.60023,41.1999276 1.64629,13.187897 -3.31967,24.776668 -13.2806,34.717768 9.76362,1.81879 14.76142,8.28576 18.76252,16.00087 2.44428,4.713123 5.28488,9.220723 8.155812,14.109063 M 49.113075,68.841757 c 0.957078,1.93262 1.811393,3.92464 2.888683,5.78775 5.1933,8.98147 11.67103,9.69432 17.76956,1.36826 7.89039,-10.77237 9.86638,-23.051748 6.95226,-36.000593 -1.15013,-5.110588 -5.04899,-7.689293 -10.26581,-7.685333 -9.42619,0.0072 -18.434658,7.324394 -20.71719,16.463905 -1.741089,6.971535 1.161934,13.041821 3.372497,20.066011 m 26.554273,19.37837 c -1.99762,-0.7703 -3.93899,-1.94192 -6.004,-2.23131 -5.03775,-0.70598 -10.32765,3.50504 -8.47966,6.85593 3.39405,6.15427 7.51769,12.047873 12.21732,17.255933 1.44963,1.60645 6.54291,1.81685 8.53124,0.49897 1.88688,-1.25064 3.28948,-5.87702 2.44335,-8.06851 -1.90135,-4.924613 -5.32876,-9.260013 -8.70825,-14.311013 z"
   id="path741" />
<path
   fill="#da5341"
   opacity="1"
   stroke="none"
   d="m 48.990761,68.475147 c -2.088249,-6.65758 -4.991272,-12.727866 -3.250183,-19.699401 2.282532,-9.139511 11.291,-16.456749 20.71719,-16.463905 5.21682,-0.004 9.11568,2.574745 10.26581,7.685333 2.91412,12.948845 0.93813,25.228223 -6.95226,36.000593 -6.09853,8.32606 -12.57626,7.61321 -17.76956,-1.36826 -1.07729,-1.86311 -1.931605,-3.85513 -3.010997,-6.15436 z"
   id="path743" />
<path
   fill="#db5442"
   opacity="1"
   stroke="none"
   d="m 75.953968,88.458017 c 3.09287,4.81311 6.52028,9.14851 8.42163,14.073123 0.84613,2.19149 -0.55647,6.81787 -2.44335,8.06851 -1.98833,1.31788 -7.08161,1.10748 -8.53124,-0.49897 -4.69963,-5.20806 -8.82327,-11.101663 -12.21732,-17.255933 -1.84799,-3.35089 3.44191,-7.56191 8.47966,-6.85593 2.06501,0.28939 4.00638,1.46101 6.29062,2.4692 z"
   id="path745" />
<path
   style="fill:#9f2124;stroke:#9f2124;stroke-width:0.136502;fill-opacity:1;stroke-opacity:1"
   d="M 80.852324,123.65152 C 74.191646,119.84277 63.124028,110.55543 56.471732,103.19269 48.126536,93.956236 42.270074,84.455502 38.834157,74.579855 36.952216,69.170721 36.816965,68.165511 36.663688,58.44894 L 36.526024,49.721837 33.854935,47.072352 C 30.608914,43.852583 29.629231,41.973864 23.433391,27.087114 16.232538,9.7856209 13.898024,5.9524627 9.2113947,3.7352842 7.4182985,2.8869954 6.5647644,2.7092319 4.2836588,2.7089964 2.0922592,2.7087701 1.3492624,2.5651588 0.67204359,2.0109197 L -0.18058076,1.3131279 1.2566071,0.70739805 C 2.3616314,0.24166481 3.4467656,0.13734734 5.9517068,0.2560429 11.340074,0.51136828 14.348752,2.5179671 18.345792,8.5221165 c 3.565952,5.3565935 7.49238,12.5884595 13.658156,25.1561955 3.435214,7.002019 6.397783,12.730944 6.583477,12.730944 0.185699,0 0.43797,-0.534848 0.560606,-1.188554 0.326851,-1.742268 2.559404,-6.222556 4.349306,-8.72819 2.239927,-3.135612 6.690373,-7.248579 13.927345,-12.871227 3.47618,-2.700762 10.130596,-8.104641 14.787593,-12.008621 4.656997,-3.9039797 8.560738,-7.0981449 8.674981,-7.0981449 0.259162,0 5.467378,26.0082059 6.726095,33.5880219 1.255982,7.563351 1.527605,14.754896 0.710007,18.798461 -1.574754,7.788228 -5.115622,14.679536 -10.569099,20.569792 -1.503342,1.623753 -2.164199,2.578823 -1.852744,2.67759 4.484611,1.422124 5.819619,2.002702 8.077225,3.512682 4.19457,2.805499 6.41852,5.623386 10.932786,13.852546 1.416573,2.582308 4.194468,7.376728 6.173104,10.654268 1.97862,3.27754 3.48792,6.0585 3.35399,6.17991 -0.13394,0.12141 -5.769292,0.66192 -12.523012,1.20113 -6.753721,0.53921 -12.942328,1.08996 -13.75246,1.2239 l -1.472969,0.24351 4.452551,3.93912 c 4.108177,3.63445 5.160197,4.92299 4.001099,4.90063 -0.248298,-0.005 -2.179476,-0.99683 -4.291505,-2.20456 z m 0.756698,-12.71482 c 1.288029,-0.61007 2.43783,-2.51559 2.920316,-4.83971 0.679916,-3.27513 -0.131863,-5.26289 -5.354136,-13.110368 l -3.236329,-4.86321 -2.485315,-1.048022 c -1.366924,-0.57641 -3.258482,-1.125401 -4.203458,-1.219975 -4.181531,-0.418499 -8.565826,2.411945 -8.572584,5.534353 -0.0042,1.949759 6.937978,12.577002 11.266022,17.246222 1.91394,2.06482 2.533184,2.50504 3.900382,2.77277 1.849945,0.36226 4.453779,0.14905 5.765102,-0.47206 z M 64.467379,81.080741 c 4.421065,-2.140204 9.972844,-10.786198 12.299312,-19.154184 1.296978,-4.665055 1.6298,-13.28031 0.727116,-18.821864 -1.364454,-8.376334 -4.444501,-11.064321 -12.262495,-10.701595 -3.052108,0.141607 -4.099003,0.357312 -6.361984,1.310841 -8.237978,3.471154 -13.73369,11.223537 -13.718799,19.352066 0.0061,3.335727 0.550829,5.95755 2.406285,11.581908 2.966563,8.992398 6.314747,14.377847 10.22903,16.453078 1.72684,0.915519 4.767531,0.906302 6.681535,-0.02026 z"
   id="path7653" /></svg>
